<mxfile host="app.diagrams.net" modified="2022-02-15T03:20:12.962Z" agent="5.0 (Macintosh; Intel Mac OS X 10_15_7) AppleWebKit/605.1.15 (KHTML, like Gecko) Version/14.1.2 Safari/605.1.15" etag="hf3xE2thyjoW4ZO8JMcA" version="16.5.6" type="github">
  <diagram id="CAx_kXBRAw6pJOKKykD8" name="Page-1">
    <mxGraphModel dx="830" dy="580" grid="1" gridSize="10" guides="1" tooltips="1" connect="1" arrows="1" fold="1" page="1" pageScale="1" pageWidth="827" pageHeight="1169" math="0" shadow="0">
      <root>
        <mxCell id="0" />
        <mxCell id="1" parent="0" />
        <mxCell id="qVX0OotuIn6cAt5GHuXx-2" value="&lt;h1&gt;벳플럭스 가치&lt;/h1&gt;&lt;p&gt;벳플럭스의 가치와 기대 가치 리스트&lt;/p&gt;" style="text;html=1;strokeColor=none;fillColor=none;spacing=5;spacingTop=-20;whiteSpace=wrap;overflow=hidden;rounded=0;" vertex="1" parent="1">
          <mxGeometry x="40" y="40" width="180" height="70" as="geometry" />
        </mxCell>
        <mxCell id="qVX0OotuIn6cAt5GHuXx-3" style="edgeStyle=orthogonalEdgeStyle;rounded=0;orthogonalLoop=1;jettySize=auto;html=1;exitX=0.5;exitY=1;exitDx=0;exitDy=0;" edge="1" parent="1" source="qVX0OotuIn6cAt5GHuXx-2" target="qVX0OotuIn6cAt5GHuXx-2">
          <mxGeometry relative="1" as="geometry" />
        </mxCell>
        <mxCell id="qVX0OotuIn6cAt5GHuXx-4" value="회원 가입" style="rounded=1;whiteSpace=wrap;html=1;fontSize=14;fillColor=#dae8fc;strokeColor=#6c8ebf;" vertex="1" parent="1">
          <mxGeometry x="40" y="220" width="140" height="70" as="geometry" />
        </mxCell>
        <mxCell id="qVX0OotuIn6cAt5GHuXx-7" value="기대 가치" style="rounded=1;whiteSpace=wrap;html=1;fontSize=14;fillColor=#d5e8d4;strokeColor=#82b366;" vertex="1" parent="1">
          <mxGeometry x="210" y="160" width="260" height="40" as="geometry" />
        </mxCell>
        <mxCell id="qVX0OotuIn6cAt5GHuXx-8" value="핸재 가치" style="rounded=1;whiteSpace=wrap;html=1;fontSize=14;fillColor=#e1d5e7;strokeColor=#9673a6;" vertex="1" parent="1">
          <mxGeometry x="520" y="160" width="260" height="40" as="geometry" />
        </mxCell>
        <mxCell id="qVX0OotuIn6cAt5GHuXx-39" style="edgeStyle=orthogonalEdgeStyle;rounded=0;orthogonalLoop=1;jettySize=auto;html=1;entryX=0;entryY=0.5;entryDx=0;entryDy=0;fontSize=14;" edge="1" parent="1" source="qVX0OotuIn6cAt5GHuXx-10" target="qVX0OotuIn6cAt5GHuXx-11">
          <mxGeometry relative="1" as="geometry" />
        </mxCell>
        <mxCell id="qVX0OotuIn6cAt5GHuXx-10" value="홈페이지를 통하여 쉽고 간편하게 회원가입을 할 수 있고 수의사 검증을 효율적으로 처리한다." style="rounded=1;whiteSpace=wrap;html=1;fontSize=14;spacing=20;" vertex="1" parent="1">
          <mxGeometry x="210" y="220" width="260" height="70" as="geometry" />
        </mxCell>
        <mxCell id="qVX0OotuIn6cAt5GHuXx-13" style="edgeStyle=orthogonalEdgeStyle;rounded=0;orthogonalLoop=1;jettySize=auto;html=1;entryX=0.5;entryY=0;entryDx=0;entryDy=0;fontSize=14;" edge="1" parent="1" source="qVX0OotuIn6cAt5GHuXx-11" target="qVX0OotuIn6cAt5GHuXx-12">
          <mxGeometry relative="1" as="geometry" />
        </mxCell>
        <mxCell id="qVX0OotuIn6cAt5GHuXx-11" value="홈페이지를 통하여 이메일 형식의 아이디와 패스워드를 입력한 후 회원 가입을 한다." style="rounded=1;whiteSpace=wrap;html=1;fontSize=14;spacing=20;" vertex="1" parent="1">
          <mxGeometry x="520" y="220" width="260" height="70" as="geometry" />
        </mxCell>
        <mxCell id="qVX0OotuIn6cAt5GHuXx-17" style="edgeStyle=orthogonalEdgeStyle;rounded=0;orthogonalLoop=1;jettySize=auto;html=1;entryX=0.5;entryY=0;entryDx=0;entryDy=0;fontSize=14;" edge="1" parent="1" source="qVX0OotuIn6cAt5GHuXx-12" target="qVX0OotuIn6cAt5GHuXx-14">
          <mxGeometry relative="1" as="geometry" />
        </mxCell>
        <mxCell id="qVX0OotuIn6cAt5GHuXx-12" value="수의사 번호를 포함한 인적 사항 병원 정보등을 추가로 기입하고 인증을 요청한다." style="rounded=1;whiteSpace=wrap;html=1;fontSize=14;spacing=20;" vertex="1" parent="1">
          <mxGeometry x="520" y="320" width="260" height="70" as="geometry" />
        </mxCell>
        <mxCell id="qVX0OotuIn6cAt5GHuXx-14" value="요청이 들어오면 웹훅으로 슬랙에 알림을 주고 버튼을 통하여 승인 할 수 있다." style="rounded=1;whiteSpace=wrap;html=1;fontSize=14;spacing=20;" vertex="1" parent="1">
          <mxGeometry x="520" y="420" width="260" height="70" as="geometry" />
        </mxCell>
        <mxCell id="qVX0OotuIn6cAt5GHuXx-18" style="edgeStyle=orthogonalEdgeStyle;rounded=0;orthogonalLoop=1;jettySize=auto;html=1;entryX=0.5;entryY=0;entryDx=0;entryDy=0;fontSize=14;" edge="1" source="qVX0OotuIn6cAt5GHuXx-22" target="qVX0OotuIn6cAt5GHuXx-23" parent="1">
          <mxGeometry relative="1" as="geometry" />
        </mxCell>
        <mxCell id="qVX0OotuIn6cAt5GHuXx-20" value="로그인" style="rounded=1;whiteSpace=wrap;html=1;fontSize=14;fillColor=#dae8fc;strokeColor=#6c8ebf;" vertex="1" parent="1">
          <mxGeometry x="40" y="560" width="140" height="70" as="geometry" />
        </mxCell>
        <mxCell id="qVX0OotuIn6cAt5GHuXx-38" style="edgeStyle=orthogonalEdgeStyle;rounded=0;orthogonalLoop=1;jettySize=auto;html=1;entryX=0;entryY=0.5;entryDx=0;entryDy=0;fontSize=14;" edge="1" parent="1" source="qVX0OotuIn6cAt5GHuXx-21" target="qVX0OotuIn6cAt5GHuXx-22">
          <mxGeometry relative="1" as="geometry" />
        </mxCell>
        <mxCell id="qVX0OotuIn6cAt5GHuXx-21" value="등록한 회원가입 정보로 로그인을 쉽게 처리한다." style="rounded=1;whiteSpace=wrap;html=1;fontSize=14;spacing=20;" vertex="1" parent="1">
          <mxGeometry x="210" y="560" width="260" height="70" as="geometry" />
        </mxCell>
        <mxCell id="qVX0OotuIn6cAt5GHuXx-22" value="인증이 완료되지 않을 경우 계속 인증 대기 화면이 출력된다." style="rounded=1;whiteSpace=wrap;html=1;fontSize=14;spacing=20;" vertex="1" parent="1">
          <mxGeometry x="520" y="560" width="260" height="70" as="geometry" />
        </mxCell>
        <mxCell id="qVX0OotuIn6cAt5GHuXx-23" value="인증이 완료된 고객은 벳플럭스에 로그인 할 수 있다." style="rounded=1;whiteSpace=wrap;html=1;fontSize=14;spacing=20;" vertex="1" parent="1">
          <mxGeometry x="520" y="660" width="260" height="70" as="geometry" />
        </mxCell>
        <mxCell id="qVX0OotuIn6cAt5GHuXx-26" value="비밀번호 찾기" style="rounded=1;whiteSpace=wrap;html=1;fontSize=14;fillColor=#dae8fc;strokeColor=#6c8ebf;" vertex="1" parent="1">
          <mxGeometry x="40" y="800" width="140" height="70" as="geometry" />
        </mxCell>
        <mxCell id="qVX0OotuIn6cAt5GHuXx-37" style="edgeStyle=orthogonalEdgeStyle;rounded=0;orthogonalLoop=1;jettySize=auto;html=1;entryX=0;entryY=0.5;entryDx=0;entryDy=0;fontSize=14;" edge="1" parent="1" source="qVX0OotuIn6cAt5GHuXx-27" target="qVX0OotuIn6cAt5GHuXx-28">
          <mxGeometry relative="1" as="geometry" />
        </mxCell>
        <mxCell id="qVX0OotuIn6cAt5GHuXx-27" value="등록한 회원이 비밀번호를 잊어버렸을 때 손 쉽게 비밀번호를 찾을 수 있다." style="rounded=1;whiteSpace=wrap;html=1;fontSize=14;spacing=20;" vertex="1" parent="1">
          <mxGeometry x="210" y="800" width="260" height="70" as="geometry" />
        </mxCell>
        <mxCell id="qVX0OotuIn6cAt5GHuXx-28" value="비밀번호 찾기를 하면 이메일로 비밀번호를 받을 수 있다.&amp;nbsp;" style="rounded=1;whiteSpace=wrap;html=1;fontSize=14;spacing=20;" vertex="1" parent="1">
          <mxGeometry x="520" y="800" width="260" height="70" as="geometry" />
        </mxCell>
        <mxCell id="qVX0OotuIn6cAt5GHuXx-32" value="자동화 메세지" style="rounded=1;whiteSpace=wrap;html=1;fontSize=14;fillColor=#dae8fc;strokeColor=#6c8ebf;" vertex="1" parent="1">
          <mxGeometry x="40" y="940" width="140" height="70" as="geometry" />
        </mxCell>
        <mxCell id="qVX0OotuIn6cAt5GHuXx-36" style="edgeStyle=orthogonalEdgeStyle;rounded=0;orthogonalLoop=1;jettySize=auto;html=1;entryX=0;entryY=0.5;entryDx=0;entryDy=0;fontSize=14;" edge="1" parent="1" source="qVX0OotuIn6cAt5GHuXx-33" target="qVX0OotuIn6cAt5GHuXx-34">
          <mxGeometry relative="1" as="geometry" />
        </mxCell>
        <mxCell id="qVX0OotuIn6cAt5GHuXx-33" value="&lt;h3 class=&quot;text-[16px] font-bold mr-4 hover:cursor-default&quot; style=&quot;box-sizing: border-box ; border-width: 0px ; border-style: solid ; margin: 0px 1rem 0px 0px ; font-family: &amp;#34;nanum gothic&amp;#34; , sans-serif ; letter-spacing: -0.32px ; background-color: rgb(255 , 255 , 255)&quot;&gt;&lt;span style=&quot;font-weight: normal&quot;&gt;&lt;font style=&quot;font-size: 14px&quot;&gt;수의사가 일일이 메세지를 보내지 않아도 된다.&lt;/font&gt;&lt;/span&gt;&lt;/h3&gt;" style="rounded=1;whiteSpace=wrap;html=1;fontSize=13;spacing=20;" vertex="1" parent="1">
          <mxGeometry x="210" y="940" width="260" height="70" as="geometry" />
        </mxCell>
        <mxCell id="qVX0OotuIn6cAt5GHuXx-34" value="고객 등록 시 카카오톡 메세지로 바로 알려준다. &amp;nbsp;" style="rounded=1;whiteSpace=wrap;html=1;fontSize=14;spacing=20;" vertex="1" parent="1">
          <mxGeometry x="520" y="940" width="260" height="70" as="geometry" />
        </mxCell>
        <mxCell id="qVX0OotuIn6cAt5GHuXx-42" value="방문 접수 후 이틀 후 경과를 물어보는 메세지 자동 발송" style="rounded=1;whiteSpace=wrap;html=1;fontSize=14;spacing=20;" vertex="1" parent="1">
          <mxGeometry x="520" y="1040" width="260" height="70" as="geometry" />
        </mxCell>
        <mxCell id="qVX0OotuIn6cAt5GHuXx-45" value="방문 예약 전날에 발송되는 메세지" style="rounded=1;whiteSpace=wrap;html=1;fontSize=14;spacing=20;" vertex="1" parent="1">
          <mxGeometry x="520" y="1140" width="260" height="70" as="geometry" />
        </mxCell>
        <mxCell id="qVX0OotuIn6cAt5GHuXx-49" value="접종 후 다음 접종 예정일 하루 전에 발송되는 메세지" style="rounded=1;whiteSpace=wrap;html=1;fontSize=14;spacing=20;" vertex="1" parent="1">
          <mxGeometry x="520" y="1240" width="260" height="70" as="geometry" />
        </mxCell>
        <mxCell id="qVX0OotuIn6cAt5GHuXx-52" value="보호자가 웹채팅 메세지를 보내면 다음 답변이전에 출력되는 메세지" style="rounded=1;whiteSpace=wrap;html=1;fontSize=14;spacing=20;" vertex="1" parent="1">
          <mxGeometry x="520" y="1340" width="260" height="70" as="geometry" />
        </mxCell>
        <mxCell id="qVX0OotuIn6cAt5GHuXx-53" value="퀵 메세지" style="rounded=1;whiteSpace=wrap;html=1;fontSize=14;fillColor=#dae8fc;strokeColor=#6c8ebf;" vertex="1" parent="1">
          <mxGeometry x="40" y="1480" width="140" height="70" as="geometry" />
        </mxCell>
        <mxCell id="qVX0OotuIn6cAt5GHuXx-54" value="&lt;h3 class=&quot;text-[16px] font-bold mr-4 hover:cursor-default&quot; style=&quot;box-sizing: border-box ; border-width: 0px ; border-style: solid ; margin: 0px 1rem 0px 0px ; font-family: &amp;#34;nanum gothic&amp;#34; , sans-serif ; letter-spacing: -0.32px ; background-color: rgb(255 , 255 , 255)&quot;&gt;&lt;span style=&quot;font-weight: normal&quot;&gt;&lt;font style=&quot;font-size: 13px&quot;&gt;수의사가 자주 사용하는 메세지를 미리 등록해놓고 쉽게 재사용 할 수 있다.&lt;/font&gt;&lt;/span&gt;&lt;/h3&gt;" style="rounded=1;whiteSpace=wrap;html=1;fontSize=14;spacing=20;" vertex="1" parent="1">
          <mxGeometry x="210" y="1480" width="260" height="70" as="geometry" />
        </mxCell>
        <mxCell id="qVX0OotuIn6cAt5GHuXx-59" style="edgeStyle=orthogonalEdgeStyle;rounded=0;orthogonalLoop=1;jettySize=auto;html=1;entryX=0.5;entryY=0;entryDx=0;entryDy=0;fontSize=13;" edge="1" parent="1" source="qVX0OotuIn6cAt5GHuXx-55" target="qVX0OotuIn6cAt5GHuXx-58">
          <mxGeometry relative="1" as="geometry" />
        </mxCell>
        <mxCell id="qVX0OotuIn6cAt5GHuXx-55" value="퀵메세지 메뉴에서 자주 사용하는 메세지를 쉽게 추가, 수정, 삭제 할 수 있다." style="rounded=1;whiteSpace=wrap;html=1;fontSize=14;spacing=20;" vertex="1" parent="1">
          <mxGeometry x="520" y="1480" width="260" height="70" as="geometry" />
        </mxCell>
        <mxCell id="qVX0OotuIn6cAt5GHuXx-56" style="edgeStyle=orthogonalEdgeStyle;rounded=0;orthogonalLoop=1;jettySize=auto;html=1;entryX=0;entryY=0.5;entryDx=0;entryDy=0;fontSize=14;" edge="1" source="qVX0OotuIn6cAt5GHuXx-54" target="qVX0OotuIn6cAt5GHuXx-55" parent="1">
          <mxGeometry relative="1" as="geometry" />
        </mxCell>
        <mxCell id="qVX0OotuIn6cAt5GHuXx-58" value="환자관리에서 &#39;/&#39;를 입력 시 리스트가 출력된다." style="rounded=1;whiteSpace=wrap;html=1;fontSize=14;spacing=20;" vertex="1" parent="1">
          <mxGeometry x="520" y="1590" width="260" height="70" as="geometry" />
        </mxCell>
      </root>
    </mxGraphModel>
  </diagram>
</mxfile>
